# Blender v2.92.0 OBJ File: 'laser.blend'
# www.blender.org
mtllib laser.mtl
o Cube
v 0.399489 0.114329 0.112727
v 0.399489 -0.114329 0.112727
v 0.399489 0.114329 -0.112727
v 0.399489 -0.114329 -0.112727
v -0.399489 0.114329 0.112727
v -0.399489 -0.114329 0.112727
v -0.399489 0.114329 -0.112727
v -0.399489 -0.114329 -0.112727
vt 0.625000 0.488281
vt 0.703125 0.398438
vt 0.722656 0.373047
vt 0.720703 0.451172
vt 0.591797 0.435547
vt 0.613281 0.402344
vt 0.628906 0.402344
vt 0.656250 0.335937
vt 0.640625 0.345703
vt 0.681641 0.341797
vt 0.681641 0.296875
vt 0.576172 0.320312
vt 0.578125 0.373047
vt 0.535156 0.439453
vn 0.0000 1.0000 0.0000
vn 0.0000 0.0000 -1.0000
vn -1.0000 0.0000 0.0000
vn 0.0000 -1.0000 0.0000
vn 1.0000 0.0000 0.0000
vn 0.0000 0.0000 1.0000
usemtl Material
s off
f 1/1/1 3/2/1 7/3/1 5/4/1
f 4/5/2 8/6/2 7/7/2 3/2/2
f 8/8/3 6/9/3 5/10/3 7/11/3
f 6/12/4 8/13/4 4/5/4 2/14/4
f 2/14/5 4/5/5 3/2/5 1/1/5
f 6/9/6 2/14/6 1/1/6 5/10/6
