# Blender v2.92.0 OBJ File: 'surface_below.blend'
# www.blender.org
mtllib surface_below.mtl
o Cube
v 100.000000 0.160011 -10.024693
v 100.000000 -0.195639 -10.024693
v 100.000000 0.160011 9.975307
v 100.000000 -0.195639 9.975307
v -100.000000 0.160011 -10.024693
v -100.000000 -0.195639 -10.024693
v -100.000000 0.160011 9.975307
v -100.000000 -0.195639 9.975307
vt 0.010218 0.997091
vt 0.011003 0.012362
vt 0.991344 0.014020
vt 0.992122 0.995971
vt 0.375000 0.750000
vt 0.625000 0.750000
vt 0.625000 1.000000
vt 0.375000 1.000000
vt 0.375000 0.000000
vt 0.625000 0.000000
vt 0.625000 0.250000
vt 0.375000 0.250000
vt 0.125000 0.500000
vt 0.375000 0.500000
vt 0.125000 0.750000
vt 0.625000 0.500000
vn 0.0000 1.0000 0.0000
vn 0.0000 0.0000 1.0000
vn -1.0000 0.0000 0.0000
vn 0.0000 -1.0000 0.0000
vn 1.0000 0.0000 0.0000
vn 0.0000 0.0000 -1.0000
usemtl Material
s off
f 1/1/1 5/2/1 7/3/1 3/4/1
f 4/5/2 3/6/2 7/7/2 8/8/2
f 8/9/3 7/10/3 5/11/3 6/12/3
f 6/13/4 2/14/4 4/5/4 8/15/4
f 2/14/5 1/16/5 3/6/5 4/5/5
f 6/12/6 5/11/6 1/16/6 2/14/6
