{"accessors" : [{"bufferView" : 0, "byteOffset" : 0, "componentType" : 5123, "count" : 138, "type" : "SCALAR", "max" : [91], "min" : [0]}, {"bufferView" : 1, "byteOffset" : 0, "componentType" : 5126, "count" : 92, "type" : "VEC3", "max" : [2.7444698810577393, 0.29190200567245483, 2.466891050338745], "min" : [-1.7299050092697144, -0.2119700014591217, -2.466891050338745], "name" : "POSITION"}, {"bufferView" : 1, "byteOffset" : 12, "componentType" : 5126, "count" : 92, "type" : "VEC2", "max" : [0.2244420051574707, -0.4212050139904022], "min" : [0.2243420034646988, -0.42130500078201294], "name" : "TEXCOORD_0"}, {"bufferView" : 1, "byteOffset" : 20, "componentType" : 5126, "count" : 92, "type" : "VEC3", "max" : [0.7574943900108337, 0.9995485544204712, 0.7474913597106934], "min" : [-0.7474868893623352, -0.9992058873176575, -0.7474913597106934], "name" : "NORMAL"}], "asset" : {"generator" : "Aspose.3D 21.4", "version" : "2.0"}, "buffers" : [{"uri" : "buffer.bin", "byteLength" : 4700}], "bufferViews" : [{"buffer" : 0, "byteOffset" : 0, "byteLength" : 276, "target" : 34963}, {"buffer" : 0, "byteOffset" : 280, "byteLength" : 4416, "byteStride" : 32, "target" : 34962}], "meshes" : [{"primitives" : [{"attributes" : {"POSITION" : 1, "TEXCOORD_0" : 2, "NORMAL" : 3}, "indices" : 0, "mode" : 4}]}], "nodes" : [{"mesh" : 0, "name" : "Cube"}], "scene" : 0, "scenes" : [{"nodes" : [0]}]}